<?xml version="1.0" standalone="no"?>
<!DOCTYPE svg PUBLIC "-//W3C//DTD SVG 20010904//EN"
 "http://www.w3.org/TR/2001/REC-SVG-20010904/DTD/svg10.dtd">
<svg version="1.0" xmlns="http://www.w3.org/2000/svg"
 width="200.000000pt" height="200.000000pt" viewBox="0 0 200.000000 200.000000"
 preserveAspectRatio="xMidYMid meet">
<metadata>
Created by potrace 1.11, written by Peter Selinger 2001-2013
</metadata>
<g transform="translate(0.000000,200.000000) scale(0.100000,-0.100000)"
fill="#000000" stroke="none">
<path d="M1061 1755 c-14 -7 -38 -10 -55 -7 -70 13 -177 2 -223 -22 -40 -20
-73 -51 -73 -68 0 -7 -21 -34 -46 -58 -25 -25 -54 -64 -64 -88 -10 -23 -26
-45 -34 -48 -8 -3 -27 -22 -42 -41 -23 -31 -25 -38 -14 -59 15 -27 -1 -57 -26
-47 -8 3 -14 3 -14 0 0 -3 14 -10 30 -16 21 -7 29 -7 24 0 -7 11 23 49 39 49
6 0 1 -10 -11 -23 -12 -13 -19 -26 -16 -30 4 -4 -3 -15 -15 -24 -14 -12 -24
-33 -27 -60 -4 -39 -2 -46 36 -85 35 -36 38 -44 26 -54 -14 -9 -13 -14 5 -33
11 -12 24 -19 30 -16 5 4 13 -5 19 -19 8 -23 12 -25 36 -16 46 18 40 1 -7 -19
-78 -34 -149 -61 -149 -56 0 3 -9 1 -20 -5 -20 -11 -29 -60 -10 -60 6 0 10
-24 10 -53 0 -28 4 -66 8 -82 4 -17 5 -46 2 -65 -6 -41 -1 -100 9 -100 4 0 7
51 6 114 -1 63 2 113 6 110 14 -8 25 -138 31 -387 1 -43 18 -51 18 -9 0 15 6
34 13 41 8 10 8 12 0 7 -14 -7 -13 -18 -17 179 -1 83 -6 160 -10 172 -9 28 2
66 16 57 6 -4 18 -25 28 -48 14 -32 17 -66 16 -161 -1 -66 2 -123 6 -126 5 -3
11 -43 13 -89 3 -46 7 -86 10 -88 2 -2 12 -2 21 2 13 5 15 13 9 44 -5 20 -7
53 -7 72 1 19 2 96 3 170 1 151 13 136 24 -30 5 -74 12 -104 32 -139 17 -30
23 -54 20 -77 -3 -21 0 -38 9 -45 8 -7 12 -20 9 -30 -4 -11 -2 -19 4 -19 6 0
11 20 11 47 0 57 6 54 13 -7 12 -101 23 -143 36 -136 8 5 5 26 -14 99 -4 15
-3 27 2 27 5 0 10 -6 11 -12 2 -31 45 -138 54 -138 6 0 7 8 3 18 -4 9 -12 33
-17 52 -5 19 -14 39 -18 44 -5 5 -6 14 -4 21 3 7 -3 19 -14 27 -13 8 -22 30
-26 61 -4 26 -10 57 -15 70 -10 27 -6 60 8 65 13 4 15 39 3 46 -5 3 -9 51 -11
106 -2 111 5 121 45 62 12 -17 23 -29 26 -27 2 3 18 -8 34 -23 16 -15 34 -29
39 -31 6 -2 16 -6 23 -8 20 -8 14 -32 -7 -26 -22 6 -33 -8 -21 -27 7 -11 11
-11 24 -1 14 12 16 7 16 -40 0 -39 3 -50 10 -39 10 16 10 17 14 -30 1 -8 6
-40 10 -70 5 -30 10 -77 12 -105 1 -27 3 -53 3 -57 1 -5 5 -8 11 -8 6 0 8 67
4 181 -3 118 -1 185 6 194 5 7 21 10 35 7 20 -3 25 -10 25 -33 0 -16 4 -29 10
-29 5 0 7 12 4 28 -5 25 -2 28 35 38 l40 11 6 -39 c9 -49 20 -41 17 12 -2 24
2 40 8 40 6 0 9 -4 5 -9 -3 -5 -1 -12 5 -16 6 -4 10 4 10 19 0 14 5 28 10 31
6 4 10 -8 11 -27 1 -81 10 -204 15 -218 3 -8 8 -40 11 -70 7 -79 30 -89 25
-10 -11 185 -12 249 -3 255 7 4 12 -8 12 -32 1 -21 3 -54 4 -73 2 -19 3 -43 4
-52 0 -10 4 -18 9 -18 4 0 8 33 9 73 4 149 8 187 21 192 6 2 12 11 12 20 0 8
6 14 12 12 9 -1 13 18 14 71 0 41 6 77 12 80 5 4 9 24 7 45 -3 27 0 37 11 37
17 0 18 12 2 28 -6 6 -12 28 -12 49 -1 29 -5 38 -21 41 -37 7 -41 22 -11 46
30 23 29 49 -2 40 -14 -5 -14 -3 2 10 11 9 28 13 38 10 16 -5 18 -2 12 20 -4
19 0 31 21 50 15 14 22 27 16 30 -6 4 -8 13 -5 20 3 8 0 17 -5 21 -6 3 -9 10
-6 15 3 5 -6 12 -20 16 -14 3 -25 13 -25 23 0 10 -14 22 -36 30 -22 8 -34 18
-30 26 3 8 -2 19 -10 25 -21 18 -17 32 6 18 11 -7 20 -18 20 -25 0 -6 8 -14
19 -18 10 -3 26 -14 36 -25 10 -11 24 -20 32 -20 11 0 11 5 -2 30 -17 34 -2
43 21 13 7 -10 14 -13 14 -7 0 6 -10 24 -21 39 -18 22 -20 29 -8 36 11 8 9 13
-11 29 -14 11 -42 34 -62 52 l-38 33 28 22 c22 17 25 24 15 34 -11 11 -13 10
-13 -3 0 -27 -23 -27 -58 0 -25 19 -30 27 -20 34 21 14 -21 40 -55 34 -17 -4
-26 -2 -22 4 3 6 0 10 -7 11 -7 0 -20 2 -28 4 -8 2 -28 7 -44 10 -16 3 -32 8
-35 10 -4 2 -17 -3 -30 -10z m238 -783 c3 -76 4 -135 2 -180 -2 -40 -18 -15
-20 30 -4 89 -6 113 -14 125 -4 7 -3 21 3 32 5 11 10 31 10 45 0 14 3 26 8 26
4 0 9 -35 11 -78z m27 -39 c-11 -11 -17 4 -9 23 7 18 8 18 11 1 2 -10 1 -21
-2 -24z m40 -48 c-1 -25 -4 -45 -8 -45 -5 0 -8 20 -8 45 0 25 4 45 8 45 5 0 8
-20 8 -45z m-634 -17 c3 -87 15 -246 22 -290 8 -53 -11 -28 -23 30 -16 80 -32
288 -23 297 14 14 22 1 24 -37z m598 -44 c0 -19 -4 -33 -9 -30 -7 5 -8 25 -2
59 3 21 11 2 11 -29z m-620 -199 c5 -38 12 -88 15 -110 3 -22 8 -50 10 -62 8
-34 -4 -28 -20 11 -8 18 -17 73 -20 122 -3 48 -8 98 -11 110 -3 13 -2 29 3 36
6 9 9 6 11 -12 1 -14 7 -56 12 -95z"/>
<path d="M1496 988 c2 -29 3 -81 3 -116 1 -35 4 -61 9 -58 4 2 7 25 6 50 -1
26 3 49 7 52 5 3 9 -18 9 -45 0 -28 4 -51 9 -51 10 0 7 192 -3 209 -4 6 -15
11 -24 11 -15 0 -17 -9 -16 -52z"/>
<path d="M1557 963 c1 -38 2 -78 3 -90 0 -13 5 -23 11 -23 8 0 10 26 6 88 -7
102 -5 92 -14 92 -5 0 -7 -30 -6 -67z"/>
<path d="M1653 959 c-10 -10 -8 -185 3 -217 9 -30 20 1 17 50 -1 29 -3 81 -4
116 -1 34 -3 62 -4 62 0 0 -6 -5 -12 -11z"/>
<path d="M1689 945 c-3 -5 -3 -20 0 -31 5 -19 8 -20 19 -8 7 8 8 14 3 14 -5 0
-11 8 -13 18 -2 9 -6 13 -9 7z"/>
<path d="M412 881 c-9 -5 -10 -21 -1 -67 16 -87 29 -89 24 -4 -3 40 -6 75 -8
76 -1 2 -8 0 -15 -5z"/>
<path d="M1690 870 c0 -5 7 -10 16 -10 8 0 12 5 9 10 -3 6 -10 10 -16 10 -5 0
-9 -4 -9 -10z"/>
<path d="M374 834 c4 -22 8 -67 10 -100 2 -34 11 -75 20 -92 9 -17 16 -44 15
-59 l-1 -28 -7 30 c-8 33 -29 75 -37 75 -3 0 -2 -14 1 -31 4 -18 9 -99 10
-181 2 -83 6 -153 9 -156 3 -3 7 4 7 16 1 12 2 30 3 40 0 11 8 27 16 37 14 17
13 18 -3 12 -16 -6 -18 -1 -13 70 2 43 9 79 15 81 13 4 14 49 2 88 -5 16 -12
54 -15 84 -9 93 -18 140 -28 147 -7 3 -8 -9 -4 -33z"/>
<path d="M1560 806 c0 -20 4 -35 8 -32 9 5 8 53 -1 63 -4 3 -7 -10 -7 -31z"/>
<path d="M1699 835 c-7 -52 -7 -65 0 -65 12 0 19 46 10 62 -5 7 -9 9 -10 3z"/>
<path d="M332 797 c-8 -24 -9 -43 -1 -71 6 -21 8 -44 5 -52 -3 -8 1 -14 9 -14
12 0 15 16 15 79 0 87 -10 108 -28 58z"/>
<path d="M1617 823 c-4 -6 -10 -33 -13 -60 l-5 -48 16 35 c16 34 18 97 2 73z"/>
<path d="M1506 753 c1 -16 2 -34 3 -41 1 -7 5 -11 9 -8 10 6 3 76 -8 76 -4 0
-6 -12 -4 -27z"/>
<path d="M1559 755 c-1 -3 -2 -8 -3 -12 -1 -5 -5 -14 -10 -21 -4 -7 -5 -21 -1
-30 4 -9 8 -59 10 -109 1 -51 6 -98 12 -105 5 -7 10 -29 12 -48 3 -38 7 -47
18 -36 10 10 4 78 -8 92 -12 14 -15 66 -5 82 3 6 2 14 -4 17 -6 4 -11 32 -11
63 1 92 0 112 -4 112 -3 0 -6 -2 -6 -5z"/>
<path d="M1700 729 c0 -5 5 -7 10 -4 6 3 10 8 10 11 0 2 -4 4 -10 4 -5 0 -10
-5 -10 -11z"/>
<path d="M305 700 c-3 -5 1 -10 9 -10 9 0 16 5 16 10 0 6 -4 10 -9 10 -6 0
-13 -4 -16 -10z"/>
<path d="M1660 670 c0 -5 5 -10 11 -10 5 0 7 5 4 10 -3 6 -8 10 -11 10 -2 0
-4 -4 -4 -10z"/>
<path d="M1382 658 c-13 -13 2 -38 23 -38 18 0 26 25 12 39 -14 14 -20 14 -35
-1z"/>
<path d="M330 610 c0 -16 0 -32 0 -35 0 -3 3 -5 8 -6 9 0 20 42 14 59 -8 23
-22 12 -22 -18z"/>
<path d="M895 480 c3 -5 8 -10 11 -10 2 0 4 5 4 10 0 6 -5 10 -11 10 -5 0 -7
-4 -4 -10z"/>
<path d="M1405 450 c3 -5 10 -10 16 -10 5 0 9 5 9 10 0 6 -7 10 -16 10 -8 0
-12 -4 -9 -10z"/>
<path d="M1140 411 c0 -25 6 -27 13 -6 4 8 2 17 -3 20 -6 4 -10 -3 -10 -14z"/>
<path d="M950 393 c0 -4 5 -15 10 -23 8 -13 10 -13 10 2 0 9 -4 20 -10 23 -5
3 -10 3 -10 -2z"/>
<path d="M550 311 c0 -17 5 -31 10 -31 6 0 10 11 10 24 0 14 -4 28 -10 31 -6
4 -10 -7 -10 -24z"/>
<path d="M1137 298 c-3 -12 -2 -28 2 -36 6 -11 10 -6 13 17 5 37 -7 52 -15 19z"/>
<path d="M385 260 c3 -5 8 -10 11 -10 2 0 4 5 4 10 0 6 -5 10 -11 10 -5 0 -7
-4 -4 -10z"/>
<path d="M557 238 c3 -18 9 -40 14 -48 6 -11 8 -6 5 15 -2 17 -5 38 -5 48 -1
9 -5 17 -10 17 -5 0 -7 -15 -4 -32z"/>
<path d="M1250 240 c0 -5 5 -10 10 -10 6 0 10 5 10 10 0 6 -4 10 -10 10 -5 0
-10 -4 -10 -10z"/>
<path d="M1250 180 c0 -5 5 -10 10 -10 6 0 10 5 10 10 0 6 -4 10 -10 10 -5 0
-10 -4 -10 -10z"/>
<path d="M570 139 c0 -5 5 -7 10 -4 6 3 10 8 10 11 0 2 -4 4 -10 4 -5 0 -10
-5 -10 -11z"/>
</g>
</svg>
